<?xml version="1.0" encoding="UTF-8" standalone="no"?>
<!-- Created with Inkscape (http://www.inkscape.org/) -->

<svg
   width="169.05823mm"
   height="42.527325mm"
   viewBox="0 0 169.05823 42.527325"
   version="1.1"
   id="svg8"
   enable-background="new"
   inkscape:version="1.2.1 (9c6d41e410, 2022-07-14)"
   sodipodi:docname="Milenij logo - full.svg"
   inkscape:export-filename="Milenij logo.png"
   inkscape:export-xdpi="384"
   inkscape:export-ydpi="384"
   xmlns:inkscape="http://www.inkscape.org/namespaces/inkscape"
   xmlns:sodipodi="http://sodipodi.sourceforge.net/DTD/sodipodi-0.dtd"
   xmlns="http://www.w3.org/2000/svg"
   xmlns:svg="http://www.w3.org/2000/svg"
   xmlns:rdf="http://www.w3.org/1999/02/22-rdf-syntax-ns#"
   xmlns:cc="http://creativecommons.org/ns#"
   xmlns:dc="http://purl.org/dc/elements/1.1/">
  <defs
     id="defs2">
    <style
       id="style4518">
      .cls-1 {
        opacity: .6;
      }

      .cls-1, .cls-2 {
        fill: #74c2e6;
      }

      .cls-3 {
        fill: #1e6fa7;
      }
    </style>
  </defs>
  <sodipodi:namedview
     id="base"
     pagecolor="#ffffff"
     bordercolor="#666666"
     borderopacity="1.0"
     inkscape:pageopacity="0.0"
     inkscape:pageshadow="2"
     inkscape:zoom="0.9"
     inkscape:cx="431.11111"
     inkscape:cy="295"
     inkscape:document-units="mm"
     inkscape:current-layer="svg8"
     showgrid="true"
     inkscape:window-width="1833"
     inkscape:window-height="1040"
     inkscape:window-x="1946"
     inkscape:window-y="0"
     inkscape:window-maximized="0"
     inkscape:showpageshadow="2"
     inkscape:pagecheckerboard="0"
     inkscape:deskcolor="#d1d1d1">
    <inkscape:grid
       type="xygrid"
       id="grid3040"
       originx="-18.971475"
       originy="-44.883442" />
  </sodipodi:namedview>
  <metadata
     id="metadata5">
    <rdf:RDF>
      <cc:Work
         rdf:about="">
        <dc:format>image/svg+xml</dc:format>
        <dc:type
           rdf:resource="http://purl.org/dc/dcmitype/StillImage" />
      </cc:Work>
    </rdf:RDF>
  </metadata>
  <g
     id="g3077"
     transform="translate(-21.465989,-76.064888)">
    <rect
       style="fill:#1e6fa7;stroke-width:0.288076"
       class="cls-3"
       x="-107.3185"
       y="-53.213619"
       width="27.445011"
       height="27.445011"
       rx="4.1828651"
       ry="4.1828651"
       transform="rotate(-135.54)"
       id="rect4524"
       inkscape:label="t veliki" />
    <rect
       style="opacity:1;mix-blend-mode:soft-light;fill:#74c2e6;stroke-width:0.204253"
       class="cls-1"
       x="-109.95407"
       y="-33.093479"
       width="12.263366"
       height="12.263366"
       rx="1.8689175"
       ry="1.8689175"
       transform="rotate(-135.54)"
       id="rect4526"
       inkscape:label="s veliki" />
    <rect
       style="mix-blend-mode:normal;fill:#74c2e6;stroke-width:0.288076"
       class="cls-2"
       x="-117.84792"
       y="-48.547958"
       width="9.2789316"
       height="9.2789316"
       rx="1.4144536"
       ry="1.4144536"
       transform="rotate(-135.54)"
       id="rect4522"
       inkscape:label="s mali" />
    <rect
       style="mix-blend-mode:normal;fill:#1e6fa7;stroke-width:0.288076"
       class="cls-3"
       x="-126.56421"
       y="-43.244686"
       width="14.602578"
       height="14.602578"
       rx="2.2268281"
       ry="2.2268281"
       transform="rotate(-135.54)"
       id="rect4528"
       inkscape:label="t mali" />
  </g>
  <g
     inkscape:label="Layer 1"
     inkscape:groupmode="layer"
     id="layer1"
     transform="translate(-18.971474,-44.883443)">
    <g
       id="g3071"
       transform="matrix(1.5593732,0,0,1.5593732,-52.498328,-95.396159)">
      <path
         id="path4530"
         d="m 92.090776,98.211386 h 2.596161 v 11.067234 h -2.106712 v -8.44157 l 0.09372,0.48705 -2.991886,6.56922 h -1.805754 l -2.991886,-6.4167 0.09373,-0.63957 v 8.44157 H 82.871435 V 98.211386 h 2.596162 l 3.311589,7.383214 z"
         class="cls-3"
         inkscape:connector-curvature="0"
         style="fill:#1e6fa7;stroke-width:0.0936754" />
      <path
         id="path4532"
         d="m 104.30825,98.211386 h 2.24834 v 11.067234 h -2.24834 z m 1.05388,9.324654 h 7.92074 v 1.74342 h -7.92074 z"
         class="cls-3"
         inkscape:connector-curvature="0"
         style="fill:#1e6fa7;stroke-width:0.0936754" />
      <path
         id="path4534"
         d="m 127.98403,98.211386 h 2.44621 l 5.889,8.517404 -0.22598,0.19802 v -8.715424 h 2.18274 v 11.059644 h -2.46495 l -5.87026,-8.38848 0.22598,-0.19802 v 8.58566 h -2.18274 z"
         class="cls-3"
         inkscape:connector-curvature="0"
         style="fill:#1e6fa7;stroke-width:0.0936754" />
      <path
         id="path4536"
         d="m 147.80671,109.01656 c -0.63004,-0.25111 -1.13302,-0.60502 -1.51,-1.06173 l 1.83491,-1.07352 c 0.20099,0.23846 0.46446,0.42385 0.79041,0.5553 0.32595,0.13229 0.68314,0.19802 1.07262,0.19802 0.62691,0 1.11011,-0.16347 1.44856,-0.49126 0.33845,-0.32695 0.50819,-0.7904 0.50819,-1.38951 v -7.542474 h 2.29521 v 7.550894 c 0,0.76596 -0.16871,1.42069 -0.5082,1.9642 -0.33845,0.54266 -0.83102,0.95639 -1.47667,1.24036 -0.64566,0.28397 -1.42357,0.42638 -2.3327,0.42638 -0.78416,0 -1.49125,-0.12556 -2.12129,-0.37666 z"
         class="cls-3"
         inkscape:connector-curvature="0"
         style="fill:#1e6fa7;stroke-width:0.0936754" />
      <g
         id="g3056">
        <polygon
           transform="matrix(0.10413804,0,0,0.08426399,58.610396,96.83834)"
           style="fill:#74c2e6"
           class="cls-2"
           points="403.65,16.29 381.61,16.29 381.61,42.32 403.65,24.58 "
           id="polygon4540" />
        <polygon
           transform="matrix(0.10413804,0,0,0.07750382,58.610396,97.803403)"
           style="fill:#1e6fa7"
           class="cls-3"
           points="381.61,148.06 403.65,148.06 403.65,28.47 381.61,46.22 "
           id="polygon4542" />
      </g>
      <g
         id="g3052">
        <polygon
           transform="matrix(0.10413804,0,0,0.08426399,102.1626,96.83834)"
           style="fill:#74c2e6"
           class="cls-2"
           points="381.61,16.29 381.61,42.32 403.65,24.58 403.65,16.29 "
           id="polygon4540-4" />
        <polygon
           transform="matrix(0.10413804,0,0,0.07750382,102.1626,97.798159)"
           style="fill:#1e6fa7"
           class="cls-3"
           points="381.61,46.22 381.61,148.06 403.65,148.06 403.65,28.47 "
           id="polygon4542-1" />
      </g>
      <g
         transform="matrix(0.10413804,0,0,0.08426399,58.610396,96.802492)"
         id="g4556">
        <polygon
           id="polygon4552"
           points="571.83,72.54 571.83,72.53 550.24,72.53 550.24,148.06 636.41,148.06 636.41,127.37 571.83,127.37 571.83,93.14 636.62,93.14 636.62,72.54 "
           class="cls-3"
           style="fill:#1e6fa7" />
        <polygon
           id="polygon4554"
           points="637.03,37.4 637.22,16.72 550.24,16.72 550.24,37.4 572.23,37.4 "
           class="cls-2"
           style="fill:#74c2e6" />
      </g>
    </g>
  </g>
</svg>
